<svg width="187" height="81" viewBox="0 0 187 81" fill="none" xmlns="http://www.w3.org/2000/svg">
<path fill-rule="evenodd" clip-rule="evenodd" d="M43.9434 40.4717C43.9434 44.1251 42.8601 47.6964 40.8304 50.7341C38.8007 53.7717 35.9158 56.1393 32.5405 57.5374C29.1653 58.9355 25.4512 59.3013 21.8681 58.5885C18.2849 57.8758 14.9935 56.1165 12.4102 53.5332C9.8269 50.9499 8.06764 47.6585 7.35491 44.0754C6.64217 40.4922 7.00797 36.7782 8.40605 33.4029C9.80414 30.0276 12.1717 27.1427 15.2094 25.113C18.247 23.0833 21.8183 22 25.4717 22C27.8976 21.9996 30.2997 22.4771 32.541 23.4052C34.7823 24.3334 36.8188 25.694 38.5341 27.4093C40.2495 29.1247 41.6101 31.1611 42.5382 33.4024C43.4664 35.6437 43.9439 38.0459 43.9434 40.4717Z" fill="white"/>
<path d="M25.4717 22C21.8183 22 18.247 23.0833 15.2094 25.113C12.1717 27.1427 9.80414 30.0276 8.40605 33.4029C7.00797 36.7782 6.64217 40.4922 7.35491 44.0754C8.06764 47.6585 9.8269 50.9499 12.4102 53.5332C14.9935 56.1165 18.2849 57.8758 21.8681 58.5885C25.4512 59.3013 29.1653 58.9355 32.5405 57.5374C35.9158 56.1393 38.8007 53.7717 40.8304 50.7341C42.8601 47.6964 43.9434 44.1251 43.9434 40.4717C43.9426 35.573 41.9962 30.8751 38.5323 27.4112C35.0683 23.9472 30.3705 22.0008 25.4717 22Z" fill="#C0E1D8"/>
<path fill-rule="evenodd" clip-rule="evenodd" d="M43.1546 40.4717C43.173 43.6912 42.235 46.8437 40.4597 49.5296C38.6844 52.2155 36.1516 54.3138 33.1824 55.5586C30.2132 56.8033 26.9412 57.1386 23.7813 56.5217C20.6214 55.9049 17.7157 54.3637 15.4326 52.0937C13.1496 49.8236 11.5919 46.9268 10.957 43.7704C10.3221 40.6141 10.6386 37.3403 11.8664 34.364C13.0942 31.3878 15.178 28.843 17.8537 27.0524C20.5294 25.2618 23.6765 24.3058 26.896 24.3058C29.0251 24.2995 31.1346 24.7126 33.104 25.5217C35.0734 26.3307 36.8641 27.5198 38.3739 29.021C39.8837 30.5222 41.083 32.3061 41.9032 34.2708C42.7235 36.2356 43.1487 38.3426 43.1546 40.4717Z" fill="#0CAE99"/>
<path fill-rule="evenodd" clip-rule="evenodd" d="M30.3036 27.2407L30.7986 36.1061C30.7986 36.1061 35.6529 35.6686 36.001 35.7261L35.3846 24.7209L30.3036 27.2407Z" fill="white"/>
<path fill-rule="evenodd" clip-rule="evenodd" d="M30.8018 45.0194L30.3036 53.6676L35.4389 56.2864L36.001 45.4761L30.8018 45.0194Z" fill="white"/>
<path fill-rule="evenodd" clip-rule="evenodd" d="M35.3846 24.7114L36.001 35.7069C36.001 35.7069 30.7858 35.9496 28.9144 36.3456C28.9144 36.3456 24.4689 36.5692 23.5907 38.5364C23.5907 38.5364 23.1819 41.73 23.8845 43.1895C23.8845 43.1895 24.4753 44.336 27.918 44.7671L36.001 45.4793L35.4389 56.2896C35.4389 56.2896 41.3566 56.3439 42.4808 52.0772L43.5315 45.5304C43.5315 45.5304 49.1458 44.4765 50.1997 43.4226V37.8338C50.1997 37.8338 50.024 36.7256 43.7071 35.7899C43.7071 35.7899 42.9917 26.701 41.3694 26.0814C41.3662 26.0814 37.2401 24.21 35.3846 24.7114Z" fill="#E7314C"/>
<path fill-rule="evenodd" clip-rule="evenodd" d="M36.001 26.3145L38.2365 27.4259L41.6185 36.665L46.8209 38.1244V41.8386L41.5578 44.0741L39.8844 52.8948L36.2565 54.1243L35.9914 54.6289L40.5135 53.6197C40.5135 53.6197 41.7111 53.4026 42.2796 50.902L43.2824 44.9907L46.0512 44.2434L49.3055 42.9659V37.5368C49.3055 37.5368 45.4125 36.17 43.1482 36.0167C43.1482 36.0167 42.5542 29.275 42.0017 28.3137C40.9159 26.3848 36.001 26.3145 36.001 26.3145Z" fill="#0CAE99"/>
<path fill-rule="evenodd" clip-rule="evenodd" d="M38.5878 26.586C38.5878 26.586 36.512 26.2315 36.001 26.3241L36.5151 36.1732C36.5151 36.1732 31.6609 36.2945 29.9651 36.6458C29.9651 36.6458 25.8134 36.7831 25.6985 39.4338V41.9088C25.6985 41.9088 25.7559 43.7228 28.9719 43.9559L36.4002 44.5404L36.001 54.6353C37.3484 54.2798 38.6552 53.7854 39.9004 53.1599C39.9004 53.1599 41.5163 52.5946 41.8357 44.5978C41.8357 44.5978 45.2879 44.4158 47.45 42.6817V37.8721C47.45 37.8721 47.5714 37.1025 41.7782 36.1732C41.7782 36.1732 42.2381 27.1576 38.5878 26.586Z" fill="white"/>
<path fill-rule="evenodd" clip-rule="evenodd" d="M27.5188 36.5436C27.5188 36.5436 20.4259 36.7927 20.2885 39.2198V42.3815C20.2885 42.3815 20.2374 44.4254 25.9029 44.3935C25.9029 44.3935 23.9484 43.6845 23.6673 42.6753C23.6673 42.6753 23.265 41.334 23.6418 38.4214C23.6642 38.4278 24.0921 37.1185 27.5188 36.5436Z" fill="white"/>
<path fill-rule="evenodd" clip-rule="evenodd" d="M131.397 33.4203L132.208 32.4622C134.078 32.2675 135.928 31.916 137.739 31.4115C139.075 31.0499 140.357 30.513 141.552 29.8147C142.396 29.3316 143.131 28.6793 143.711 27.8986C144.152 27.2799 144.393 26.5409 144.401 25.7812C144.403 24.7018 143.9 23.8033 142.89 23.0858C141.881 22.3683 140.374 22.0096 138.368 22.0096C137.388 22.0201 136.409 22.1001 135.44 22.2491C134.333 22.4067 133.247 22.6025 132.182 22.8367C131.118 23.0709 130.139 23.3158 129.247 23.5712C128.665 23.7151 128.093 23.8942 127.532 24.1078C126.83 24.4463 126.053 25.2234 125.201 26.4391C124.35 27.6548 123.924 28.4958 123.924 28.962C123.912 29.042 123.919 29.1237 123.944 29.2005C123.97 29.2773 124.013 29.3471 124.07 29.4045C124.127 29.4618 124.196 29.5051 124.273 29.5308C124.35 29.5566 124.431 29.5641 124.511 29.5528C125.064 29.5528 126.137 29.3101 127.727 28.8279C129.318 28.3457 130.116 27.9784 130.116 27.8507C130.116 27.7229 129.854 27.5632 129.337 27.3716C129.273 27.3397 129.241 27.3077 129.241 27.2758C129.241 27.1704 129.557 26.9948 130.199 26.7744C130.841 26.5541 131.576 26.3369 132.396 26.1357C133.22 25.9356 134.139 25.7557 135.152 25.596C136.044 25.4468 136.947 25.3667 137.851 25.3565C139.273 25.3565 140.329 25.5151 141.019 25.8323C141.331 25.9496 141.599 26.1617 141.785 26.4389C141.97 26.7162 142.064 27.0446 142.054 27.378C142.043 27.9678 141.718 28.5 141.08 28.9748C140.204 29.5561 139.23 29.9748 138.205 30.2107C136.595 30.62 134.959 30.9261 133.31 31.1273C134.051 30.297 134.689 29.5795 135.226 28.9748C135.762 28.3701 136.15 27.9305 136.388 27.6559C136.54 27.5107 136.661 27.3371 136.746 27.1449C136.746 27.0938 136.695 27.065 136.593 27.065C136.5 27.0646 136.407 27.071 136.315 27.0842C135.23 27.2007 134.201 27.6288 133.354 28.3169C132.205 29.2659 131.162 30.3367 130.244 31.5105C129.201 31.6383 128.349 31.7447 127.689 31.8299C127.237 31.8786 126.789 31.95 126.344 32.0438C126.137 32.0868 125.945 32.1825 125.786 32.3217C125.713 32.3948 125.657 32.4824 125.622 32.5788C125.586 32.6752 125.571 32.778 125.578 32.8806C125.575 33.0681 125.625 33.2527 125.72 33.4139C125.816 33.5751 125.955 33.7067 126.121 33.7939C126.482 34.0143 127.095 34.142 127.967 34.1867C127.024 35.3348 126.17 36.5529 125.412 37.8306C124.922 38.5977 124.636 39.4771 124.582 40.3855C124.572 40.8782 124.691 41.3648 124.929 41.7965C125.167 42.2281 125.514 42.5896 125.936 42.8446C126.836 43.445 128.093 43.7452 129.707 43.7452C130.799 43.7263 131.884 43.5631 132.933 43.2597C134.128 42.9301 135.286 42.4785 136.388 41.912C137.4 41.4163 138.322 40.7546 139.116 39.9544C139.815 39.2326 140.169 38.4853 140.169 37.7189C140.169 36.4691 139.331 35.4929 137.653 34.7903C137.109 34.5768 136.553 34.3934 135.989 34.241L135.885 34.2146L135.885 34.2145C135.284 34.0618 134.626 33.8948 133.926 33.762C133.185 33.6215 132.339 33.5065 131.397 33.4203ZM129.046 36.2594C129.476 35.7548 129.968 35.1736 130.522 34.5157C132.008 34.7094 133.281 34.9191 134.341 35.1448C135.166 35.293 135.965 35.5586 136.714 35.9336C137.231 36.2306 137.493 36.6075 137.493 37.0642C137.493 37.5943 137.139 38.1212 136.433 38.6386C135.64 39.2056 134.758 39.6373 133.824 39.916C132.88 40.2243 131.895 40.388 130.902 40.4015C129.912 40.4015 129.158 40.2003 128.634 39.8043C128.403 39.6576 128.211 39.4574 128.073 39.2206C127.936 38.9838 127.858 38.7173 127.845 38.4438C127.848 38.105 127.944 37.7735 128.123 37.4857C128.398 37.0534 128.707 36.6434 129.046 36.2594ZM64.325 35.2981H61.9202C61.3655 35.3358 60.8163 35.4322 60.2819 35.5855L57.3502 36.3041C57.0519 36.3517 56.761 36.4376 56.4847 36.5596C56.3114 36.7145 56.1722 36.9037 56.0759 37.1153C55.8894 37.4764 55.7252 37.8486 55.5841 38.2298C55.5682 38.3365 55.5885 38.4454 55.6417 38.5392C55.695 38.633 55.7782 38.7062 55.8779 38.7472C56.2304 38.8299 56.594 38.8536 56.9542 38.8174L61.7446 38.5811L60.4256 40.1428L60.1574 40.4574L60.1573 40.4576C59.7123 40.9798 59.3616 41.3914 59.0939 41.6885C58.7724 42.0419 58.3988 42.4475 57.9729 42.9052C56.9279 42.9694 55.9264 43.3467 55.0987 43.9879C54.3345 44.5673 53.6755 45.2738 53.1506 46.0765C52.678 46.8217 52.4416 47.2837 52.4416 47.4625C52.4385 47.5599 52.4569 47.6568 52.4955 47.7462C52.5342 47.8356 52.5921 47.9154 52.6652 47.9799C52.8074 48.1118 52.995 48.1839 53.1889 48.1811C53.6871 48.1789 54.5558 47.7276 55.7949 46.827C57.2575 45.7273 58.6395 44.5245 59.9306 43.2278C61.4544 41.7311 62.8726 40.1304 64.1749 38.4374L64.4301 38.4259H64.4301H64.4302H64.4302H64.4302H64.4303H64.4303H64.4303H64.4304C64.8418 38.4071 65.228 38.3895 65.5833 38.3895C66.0155 38.3767 66.3732 38.3608 66.6563 38.3416L68.7769 35.3013H66.3242C67.1705 34.059 67.9306 32.8806 68.5916 31.766C69.2559 30.6504 69.819 29.6263 70.281 28.6938C70.6605 27.947 70.9975 27.1793 71.2902 26.3944C71.4644 25.9695 71.5721 25.5203 71.6096 25.0627C71.6117 24.1727 71.3168 23.5915 70.7249 23.319C69.9797 23.0205 69.1799 22.8823 68.3777 22.9134C66.5912 22.9281 64.8084 23.0775 63.0444 23.3605C61.1027 23.6564 59.359 23.9853 57.8133 24.3473C56.882 24.5343 55.9644 24.784 55.0668 25.0946C54.2684 25.4796 53.5871 26.0705 53.0931 26.8064C52.5939 27.5198 52.1801 28.2894 51.8604 29.0994C51.6585 29.5495 51.5116 30.0224 51.4229 30.5077C51.4164 30.7552 51.5017 30.9964 51.6624 31.1848C51.7356 31.2736 51.8279 31.3447 51.9324 31.3928C52.0369 31.4409 52.151 31.4648 52.266 31.4626C52.5783 31.394 52.8808 31.2867 53.1666 31.1433C53.6635 30.9415 54.171 30.7667 54.6867 30.6195C55.2169 30.4694 55.7758 30.3257 56.373 30.1979C56.9702 30.0702 57.264 29.9616 57.264 29.8786C57.264 29.687 56.8328 29.5912 55.9865 29.5912C55.4436 29.5912 54.7825 29.6135 53.9937 29.655C54.1767 29.5115 54.3748 29.3883 54.5845 29.2878C55.1179 29.0358 55.6686 28.8223 56.2324 28.6491C57.2522 28.331 58.2911 28.0782 59.343 27.8922C60.7833 27.6079 62.2779 27.3588 63.814 27.1545C65.3533 26.9458 66.4253 26.8159 67.03 26.7648C68.0711 26.7648 68.5916 27.065 68.5916 27.6718C68.5916 28.1083 68.2276 29.0206 67.4994 30.4087C66.5683 32.1176 65.507 33.7522 64.325 35.2981ZM76.0901 32.0981C74.3685 32.9448 72.7829 34.0438 71.3859 35.3588C70.9229 35.7929 70.4877 36.2559 70.083 36.7448C69.8333 37.0486 69.6446 37.3978 69.5273 37.7731C69.4224 38.1808 69.374 38.601 69.3836 39.0218C69.3823 39.7088 69.5203 40.3889 69.7891 41.021C70.0133 41.585 70.3236 42.1107 70.7089 42.5795C71.0602 42.9819 71.3508 43.1831 71.5839 43.1831C72.0694 43.1788 72.69 42.8158 73.4458 42.0941C74.2016 41.3723 75.3524 40.1534 76.8981 38.4374C76.2934 40.0299 75.9911 41.2446 75.9911 42.0813C75.9639 42.4992 76.0546 42.9164 76.253 43.2853C76.3516 43.424 76.4849 43.5345 76.6396 43.6056C76.7942 43.6768 76.9649 43.7062 77.1344 43.6909C78.2947 43.6909 80.2141 42.1952 82.8924 39.2039V39.1854C83.9469 38.2413 84.8188 37.1099 85.4633 35.8474L86.4213 35.6718L87.5998 35.4578L88.6026 35.2598C88.0587 35.9127 87.5512 36.595 87.0824 37.3037C86.6773 37.907 86.3329 38.5488 86.0541 39.2198C85.8443 39.7113 85.7284 40.2378 85.7124 40.7719C85.6712 41.3956 85.8265 42.0166 86.1563 42.5476C86.2764 42.7344 86.4412 42.8884 86.6358 42.9954C86.8304 43.1025 87.0487 43.1593 87.2708 43.1607C87.7418 43.1306 88.1946 42.9679 88.577 42.6913C89.1459 42.3133 89.6802 41.8859 90.1738 41.4138C90.6731 40.9516 91.288 40.3423 92.0185 39.5861C92.0233 40.3503 92.1912 41.1052 92.5116 41.8003C92.8405 42.4805 93.1982 42.8222 93.5783 42.8222C93.6911 42.8123 93.8006 42.7787 93.8996 42.7237C93.9987 42.6686 94.085 42.5934 94.1531 42.5028C94.3511 42.2899 94.6705 41.8641 95.1112 41.2254C95.4782 40.6916 95.8748 40.1788 96.2992 39.6893C97.5607 38.2905 98.4134 37.3708 98.8541 36.93C99.2948 36.4893 99.6301 36.269 99.8633 36.269C99.9067 36.2625 99.951 36.2663 99.9927 36.2801C100.034 36.2938 100.072 36.3172 100.103 36.3482C100.134 36.3793 100.158 36.4172 100.172 36.4589C100.185 36.5005 100.189 36.5449 100.183 36.5883C100.193 36.7271 100.159 36.8656 100.087 36.9843C99.3235 38.2586 98.7359 39.3093 98.3207 40.13C97.9056 40.9508 97.7012 41.5192 97.7012 41.8386C97.7012 42.6274 97.9758 43.017 98.5283 43.017C99.0372 43.017 99.5886 42.6881 100.183 42.0302L101.441 40.5899C101.977 39.9852 102.662 39.272 103.494 38.4502C104.327 37.6284 105.285 36.7767 106.369 35.8953L105.174 37.8626C104.74 38.5779 104.39 39.19 104.124 39.6989C103.896 40.125 103.7 40.5669 103.536 41.021C103.411 41.3741 103.347 41.7453 103.344 42.1196C103.334 42.4618 103.453 42.7952 103.68 43.0521C103.783 43.1685 103.911 43.2608 104.054 43.3226C104.196 43.3844 104.351 43.4142 104.507 43.4098C105.002 43.3705 105.481 43.2092 105.899 42.9404C106.596 42.5283 107.255 42.0537 107.866 41.5224C108.55 40.9573 109.304 40.2902 110.13 39.521C110.18 40.0333 110.308 40.5359 110.511 41.0114C110.738 41.5796 111.052 42.1086 111.443 42.5795C111.791 42.9819 112.085 43.1831 112.318 43.1831C112.804 43.1831 113.426 42.819 114.18 42.0941C114.936 41.3723 116.091 40.1577 117.645 38.4502C117.038 40.0427 116.735 41.2573 116.735 42.0941C116.71 42.5077 116.801 42.9202 116.997 43.2853C117.094 43.4252 117.227 43.5366 117.382 43.6079C117.537 43.6792 117.709 43.7078 117.878 43.6909C119.032 43.6909 120.949 42.1952 123.63 39.2039V38.2458C122.059 39.635 120.864 40.3312 120.143 40.3312C119.421 40.3312 119.063 39.9384 119.063 39.1528C119.053 38.7273 119.164 38.3076 119.382 37.9424L119.43 37.8687C119.643 37.5407 119.985 37.0133 120.462 36.368C120.976 35.6718 121.232 35.1991 121.232 34.9436C121.227 34.7931 121.194 34.6448 121.136 34.5061C121.072 34.3464 120.982 34.1324 120.867 33.8674L120.58 33.2287C120.85 33.1485 121.111 33.0415 121.359 32.9093C121.432 32.8668 121.491 32.8048 121.531 32.7303C121.57 32.6558 121.588 32.5718 121.583 32.4877C121.561 32.2992 121.505 32.1163 121.417 31.948C121.306 31.7082 121.151 31.4915 120.96 31.3093C120.881 31.2241 120.785 31.1556 120.678 31.1079C120.572 31.0601 120.457 31.0342 120.341 31.0315C119.519 31.0293 118.348 31.3849 116.828 32.0981C115.11 32.9462 113.528 34.0451 112.133 35.3588C111.661 35.7882 111.217 36.248 110.804 36.7352C110.554 37.0383 110.365 37.3877 110.249 37.7636C110.197 37.9638 110.159 38.1671 110.135 38.372C109.334 39.0763 108.739 39.5719 108.352 39.8586C108.042 40.1286 107.656 40.2959 107.247 40.3376C106.992 40.3418 106.746 40.2467 106.56 40.0725C106.465 39.9853 106.39 39.8785 106.34 39.7593C106.291 39.6402 106.268 39.5117 106.273 39.3827C106.281 38.8724 106.459 38.3793 106.777 37.9807C107.112 37.5358 107.615 36.9386 108.288 36.1891C108.961 35.4397 109.297 34.9649 109.297 34.7648C109.27 34.3373 109.161 33.919 108.978 33.5321C108.754 33.0275 108.521 32.7752 108.278 32.7752C108.151 32.7752 107.866 32.9636 107.4 33.3468C106.934 33.7301 106.404 34.1963 105.803 34.7488L103.328 37.0099C102.279 37.968 101.02 39.0953 99.5535 40.3919C100.522 39.1187 101.315 38.0457 101.933 37.1727C102.438 36.4453 102.903 35.6905 103.325 34.9117C103.567 34.5216 103.73 34.0875 103.804 33.6342C103.813 33.3106 103.699 32.9955 103.485 32.7528C103.389 32.6375 103.268 32.5451 103.131 32.4827C102.995 32.4202 102.846 32.3892 102.696 32.3919C102.166 32.3941 101.527 32.6836 100.78 33.2606C99.9228 33.936 99.1089 34.6645 98.3431 35.4418C97.4681 36.3169 96.6633 37.1248 95.9319 37.8689C95.2006 38.6131 94.7854 38.9835 94.5619 38.9835C94.3383 38.9835 94.2266 38.8398 94.2266 38.5556C94.29 38.1991 94.4379 37.8629 94.6577 37.5751C94.9159 37.162 95.2202 36.7795 95.5647 36.435C96.1027 35.9566 96.5956 35.4295 97.0369 34.8606C97.4265 34.3496 97.6182 33.9855 97.6182 33.762C97.6179 33.6568 97.5877 33.5538 97.5312 33.465C97.4746 33.3762 97.394 33.3054 97.2988 33.2606C97.0594 33.133 96.7907 33.0702 96.5196 33.0786C96.25 33.0886 95.985 33.1519 95.74 33.2648C95.495 33.3777 95.2748 33.538 95.092 33.7364C94.4481 34.4194 93.8657 35.1579 93.3515 35.9432C92.9741 36.5136 92.6359 37.109 92.3391 37.7252C92.2541 37.9275 92.1856 38.1358 92.1341 38.348C90.6462 39.5424 89.5607 40.1396 88.9826 40.1396C88.3758 40.1396 88.0565 39.8905 88.0565 39.3923C88.1284 38.8243 88.3247 38.2791 88.6313 37.7955C89.0212 37.0852 89.4998 36.4274 90.0556 35.8378C90.4116 35.4767 90.7484 35.0972 91.0648 34.7009C91.24 34.498 91.3443 34.2435 91.3618 33.976C91.3596 33.6186 91.3003 33.2639 91.1862 32.9253C91.1805 32.8152 91.1516 32.7075 91.1014 32.6094C91.0512 32.5112 90.9808 32.4248 90.8949 32.3558C90.8089 32.2867 90.7094 32.2366 90.6027 32.2087C90.4961 32.1808 90.3847 32.1758 90.276 32.1939C88.8838 32.2869 87.4979 32.4564 86.1243 32.7017C86.3614 32.3724 86.5297 31.9988 86.6194 31.6031C86.6194 31.386 86.514 31.2838 86.3 31.2838C86.1496 31.2876 86.0021 31.3258 85.8689 31.3955C85.3762 31.6275 84.9402 31.9643 84.5914 32.3824C84.1332 32.8795 83.7375 33.4308 83.413 34.0239C83.1389 34.4604 82.9745 34.9567 82.9339 35.4706C82.9143 35.7456 82.9961 36.0183 83.1639 36.237C83.3722 36.438 83.6266 36.585 83.9048 36.665C83.5111 37.2735 83.0757 37.854 82.6018 38.4023V38.4991C81.1768 39.7196 80.0877 40.3312 79.4082 40.3312C78.6833 40.3312 78.3256 39.9384 78.3256 39.1528C78.3146 38.7271 78.4254 38.3072 78.645 37.9424L78.6928 37.8687L78.6928 37.8687L78.6929 37.8686L78.6929 37.8685L78.693 37.8685C78.9058 37.5405 79.2479 37.0132 79.7244 36.368C80.2386 35.6718 80.4973 35.1991 80.4973 34.9436C80.4926 34.7931 80.4601 34.6448 80.4014 34.5061C80.3376 34.3464 80.2482 34.1324 80.13 33.8674L79.8426 33.2287C80.1123 33.1485 80.3734 33.0415 80.6218 32.9093C80.6946 32.8668 80.754 32.8048 80.7935 32.7303C80.833 32.6558 80.8509 32.5718 80.8454 32.4877C80.825 32.2989 80.7687 32.1157 80.6793 31.948C80.5698 31.7084 80.4159 31.4917 80.2258 31.3093C80.1457 31.224 80.0493 31.1554 79.9424 31.1077C79.8355 31.06 79.7201 31.0341 79.603 31.0315C78.7791 31.0293 77.6081 31.3849 76.0901 32.0981ZM73.1137 36.8246C74.2783 35.9453 76.2445 34.8734 79.0122 33.6087H79.0186C77.7242 35.4333 76.6149 36.8683 75.6909 37.9137C74.8147 38.9226 73.783 39.7851 72.6346 40.4685C72.4437 40.5808 72.2337 40.6566 72.0151 40.6921C71.913 40.6903 71.8137 40.6592 71.7288 40.6026C71.6439 40.546 71.577 40.4662 71.536 40.3727C71.4091 40.1138 71.3487 39.8273 71.3604 39.5392C71.3647 38.6088 71.9491 37.7039 73.1137 36.8246ZM119.759 33.6087C116.992 34.8734 115.025 35.9453 113.861 36.8246C112.696 37.7039 112.11 38.6088 112.101 39.5392C112.089 39.8273 112.15 40.1138 112.277 40.3727C112.317 40.466 112.383 40.5456 112.468 40.6022C112.552 40.6589 112.651 40.69 112.753 40.6921C112.978 40.6592 113.195 40.5833 113.391 40.4685C114.54 39.7851 115.571 38.9226 116.448 37.9137C117.361 36.8683 118.465 35.4333 119.759 33.6087ZM144.037 38.7823V39.1815C144.004 39.7106 144.169 40.233 144.5 40.6474C144.65 40.8188 144.836 40.9548 145.045 41.0454C145.253 41.136 145.48 41.1789 145.707 41.1711C146.265 41.1674 146.815 41.0466 147.323 40.8166C147.912 40.5602 148.47 40.2389 148.987 39.8586C149.499 39.4854 150.116 38.9803 150.84 38.379C150.94 37.3237 151.176 36.2847 151.545 35.2885C152.09 33.718 152.774 32.1993 153.589 30.7504C154.362 29.3416 155.252 27.9999 156.249 26.7393C156.952 25.7958 157.817 24.9848 158.804 24.3441C159.025 24.1877 159.282 24.0889 159.551 24.0567C159.648 24.0493 159.744 24.0741 159.825 24.1273C159.906 24.1804 159.967 24.2589 159.999 24.3505C160.089 24.6799 160.127 25.0216 160.11 25.3629C160.11 26.8383 159.51 28.648 158.309 30.792C156.922 33.1898 155.238 35.4024 153.295 37.3771C153.205 37.7974 153.151 38.2249 153.135 38.6546C153.109 39.2387 153.262 39.8169 153.573 40.312C153.704 40.5147 153.885 40.68 154.099 40.7919C154.313 40.9038 154.552 40.9586 154.793 40.9508C155.105 40.933 155.404 40.8217 155.652 40.6314C155.989 40.3964 156.309 40.1382 156.61 39.8586C156.946 39.5693 157.574 39.0003 158.493 38.1515C158.622 37.5771 158.834 37.0221 159.127 36.5053C159.812 35.4112 160.675 34.4397 161.682 33.6311C162.403 32.9968 163.213 32.4708 164.086 32.0694C164.753 31.7554 165.477 31.5805 166.213 31.5552C166.635 31.5328 167.053 31.6531 167.398 31.8969C167.547 32.0216 167.664 32.1799 167.739 32.3587C167.815 32.5375 167.847 32.7317 167.832 32.9253C167.811 33.6549 167.548 34.3567 167.085 34.9213C166.446 35.7094 165.673 36.3786 164.802 36.8981C163.601 37.6382 162.337 38.2688 161.024 38.7823V39.1815C160.992 39.71 161.155 40.2318 161.484 40.6474C161.634 40.8187 161.821 40.9546 162.03 41.0451C162.239 41.1357 162.466 41.1787 162.694 41.1711C163.255 41.1687 163.809 41.0479 164.319 40.8166C164.908 40.5602 165.466 40.2389 165.983 39.8586C166.508 39.4762 167.143 38.9554 167.887 38.3346C167.92 38.1466 167.968 37.961 168.03 37.7795C168.251 37.2906 168.515 36.8225 168.819 36.3807C169.363 35.4939 169.995 34.6646 170.707 33.9057C171.237 33.3788 171.745 33.1169 172.236 33.1169C172.519 33.1046 172.8 33.1639 173.054 33.2893C173.153 33.3399 173.236 33.4179 173.293 33.5141C173.35 33.6103 173.377 33.7207 173.373 33.8323C173.367 33.9448 173.334 34.0543 173.277 34.1516C173.216 34.2646 173.145 34.3715 173.063 34.471C172.984 34.5668 172.818 34.752 172.562 35.0299C170.887 36.8885 170.048 38.0925 170.046 38.6418C170.046 38.9612 170.148 39.1049 170.349 39.1049C170.477 39.1049 170.723 38.9005 171.09 38.4917C171.233 38.3325 171.392 38.1519 171.566 37.953C171.84 37.6414 172.153 37.2848 172.508 36.8949C173.152 36.1631 173.837 35.4689 174.561 34.8159C175.405 34.0514 176.307 33.3542 177.26 32.7305C177.659 32.4018 178.145 32.1965 178.659 32.1397C178.828 32.1397 178.997 32.376 179.16 32.8422C179.324 33.297 179.408 33.7767 179.409 34.2602C179.412 34.4965 179.182 34.851 178.726 35.3269C176.859 37.4091 175.925 38.8579 175.925 39.6733C175.925 40.13 176.11 40.36 176.481 40.36C176.919 40.3108 177.335 40.1429 177.685 39.8745C178.176 39.5488 178.948 38.9729 180 38.1468V39.2454C178.493 40.7357 177.335 41.8077 176.529 42.4613C175.722 43.115 175.064 43.4439 174.555 43.4482C173.686 43.4482 173.249 42.8733 173.249 41.73C173.249 41.3884 173.303 41.049 173.408 40.724C173.525 40.3705 173.671 40.0275 173.846 39.6989C174.034 39.3444 174.315 38.8334 174.699 38.1691C175.082 37.5049 175.523 36.7576 176.021 35.9336C175.176 36.428 174.408 37.0446 173.744 37.7636C173.207 38.2764 172.701 38.8214 172.23 39.3955C171.818 39.9129 171.374 40.4845 170.901 41.1168C170.582 41.5629 170.237 41.9895 169.867 42.3943C169.784 42.4892 169.682 42.5664 169.569 42.6212C169.455 42.6761 169.332 42.7075 169.206 42.7136C168.867 42.7136 168.567 42.3559 168.267 41.647C167.993 40.9308 167.846 40.1729 167.832 39.4076C166.885 40.5596 165.811 41.6012 164.629 42.5124C163.718 43.2326 162.597 43.6382 161.436 43.6685C161.002 43.6817 160.571 43.5885 160.181 43.397C159.792 43.2055 159.455 42.9216 159.2 42.5699C158.639 41.8337 158.355 40.8352 158.348 39.5745C156.253 42.2762 154.539 43.6281 153.206 43.6302C152.452 43.6302 151.86 43.2182 151.43 42.3943C151.007 41.4768 150.788 40.4801 150.785 39.4724C149.85 40.5989 148.793 41.6185 147.633 42.5124C146.721 43.2328 145.601 43.6385 144.439 43.6685C144.005 43.6817 143.575 43.5885 143.185 43.397C142.795 43.2055 142.458 42.9216 142.204 42.5699C141.644 41.8269 141.363 40.8166 141.361 39.5392C141.348 38.4764 141.618 37.4292 142.143 36.5053C142.827 35.4102 143.691 34.4385 144.698 33.6311C145.42 32.9968 146.23 32.4708 147.103 32.0694C147.769 31.7558 148.491 31.5809 149.227 31.5552C149.649 31.5328 150.066 31.6531 150.411 31.8969C150.561 32.0213 150.678 32.1794 150.754 32.3582C150.83 32.537 150.863 32.7314 150.849 32.9253C150.827 33.6549 150.564 34.3567 150.102 34.9213C149.463 35.7094 148.69 36.3786 147.818 36.8981C146.617 37.6384 145.351 38.269 144.037 38.7823ZM146.649 36.3648C145.909 36.949 145.083 37.415 144.2 37.7463C144.303 37.1316 144.535 36.5455 144.88 36.0262C145.217 35.5062 145.621 35.0327 146.081 34.6179C146.481 34.2534 146.919 33.9322 147.387 33.6598C147.667 33.4709 147.986 33.3456 148.32 33.2925C148.527 33.2925 148.639 33.4171 148.639 33.6598C148.569 34.0636 148.401 34.4441 148.15 34.768C147.735 35.3745 147.229 35.9131 146.649 36.3648ZM153.863 35.1581C154.44 34.5833 154.973 33.9661 155.457 33.3117C155.984 32.6029 156.47 31.865 156.914 31.1017C157.318 30.4257 157.678 29.7237 157.99 29.0004C158.203 28.5548 158.335 28.0745 158.379 27.5824C158.379 27.3397 158.296 27.2151 158.127 27.2151C157.993 27.2467 157.868 27.3066 157.76 27.3908C157.121 27.9209 156.394 28.9588 155.579 30.5045C154.799 31.9713 154.222 33.5366 153.863 35.1581ZM161.18 37.7476C162.065 37.4177 162.893 36.9511 163.633 36.3648C164.214 35.914 164.722 35.3752 165.137 34.768C165.388 34.4442 165.554 34.0635 165.622 33.6598C165.622 33.4171 165.514 33.2925 165.303 33.2925C164.969 33.3456 164.651 33.4709 164.371 33.6598C163.902 33.9314 163.464 34.2527 163.064 34.6179C162.605 35.0329 162.203 35.5064 161.867 36.0262C161.521 36.5461 161.287 37.1323 161.18 37.7476ZM165.622 28.7544C165.442 28.7531 165.267 28.6875 165.131 28.5692C165.064 28.5236 165.01 28.4632 164.971 28.3928C164.932 28.3224 164.91 28.244 164.907 28.1636C164.907 27.774 165.46 26.768 166.561 25.1553C166.888 24.6498 167.294 24.2011 167.765 23.8267C168.183 23.5877 168.662 23.4767 169.142 23.5074C169.927 23.5074 170.32 23.7778 170.32 24.3185C170.32 24.6379 169.979 25.1361 169.295 25.8451C168.608 26.5579 167.874 27.2237 167.098 27.8379C166.315 28.4447 165.827 28.7544 165.622 28.7544Z" fill="#0CAE99"/>
<path fill-rule="evenodd" clip-rule="evenodd" d="M174.861 51.2054L177.1 53.2461L177.356 50.225L179.984 48.724L177.196 47.5455L176.586 44.5755L174.606 46.8685L171.598 46.5332L173.163 49.1296L171.917 51.892L174.861 51.2054ZM170.541 47.0537C170.541 47.0537 90.455 41.9408 45.106 54.2297L42.6182 59.0935C42.6182 59.0935 99.9814 48.6505 170.541 47.0537Z" fill="#E7314C"/>
</svg>
